<svg width="152" height="152" viewBox="0 0 152 152" fill="none" xmlns="http://www.w3.org/2000/svg">
<rect x="0.866577" y="0.837463" width="150.547" height="150.547" fill="#FCFCFC"/>
<path d="M47.2061 34.5015V47.8696C50.779 44.6179 54.2916 41.8279 57.744 39.4995C61.2366 37.1711 64.6488 35.2643 67.9808 33.7789C71.3529 32.2936 74.6247 31.2097 77.7961 30.5273C80.9675 29.8047 84.0184 29.4434 86.949 29.4434C91.2845 29.4434 95.319 30.1459 99.0524 31.5509C102.786 32.956 106.078 34.923 108.928 37.4521C111.778 39.9812 114.147 42.992 116.033 46.4846C117.92 49.937 119.185 53.7306 119.827 57.8655C120.269 60.7559 120.59 63.586 120.791 66.356C121.031 69.0858 121.192 71.5346 121.272 73.7024C121.353 75.6293 121.393 77.476 121.393 79.2423V122.779H104.05V73.6422C104.05 67.741 103.569 62.8032 102.605 58.829C101.682 54.8547 100.397 51.6632 98.7514 49.2545C97.1456 46.8057 95.2387 45.0795 93.0308 44.0759C90.863 43.0322 88.5146 42.5103 85.9855 42.5103C83.336 42.5103 80.566 42.992 77.6756 43.9555C74.8254 44.8788 72.0153 46.0832 69.2453 47.5685C66.4754 49.0137 63.8058 50.6195 61.2366 52.3858C58.7075 54.1521 56.4393 55.8382 54.4321 57.444C52.465 59.0497 50.8392 60.4949 49.5546 61.7796C48.27 63.024 47.4872 63.8871 47.2061 64.3689V122.779H30.8875V34.5015H47.2061Z" fill="#2EC9B7"/>
</svg>
