<svg width="21" height="20" viewBox="0 0 21 20" fill="none" xmlns="http://www.w3.org/2000/svg">
<g clip-path="url(#clip0_119_1772)">
<path fill-rule="evenodd" clip-rule="evenodd" d="M2.23815 9.6352C7.60648 7.29603 11.1865 5.75436 12.9781 5.00936C18.0923 2.88186 19.1548 2.5127 19.8481 2.5002C19.9998 2.49686 20.3406 2.53436 20.5615 2.71353C20.7473 2.8652 20.799 3.06936 20.8231 3.2127C20.8481 3.35603 20.8781 3.68186 20.854 3.9377C20.5773 6.84936 19.3781 13.916 18.7681 17.1777C18.5098 18.5577 18.0015 19.0202 17.5098 19.066C16.4398 19.1644 15.6273 18.3594 14.5915 17.6802C12.9706 16.6177 12.0556 15.956 10.4823 14.9194C8.66398 13.721 9.84231 13.0627 10.879 11.986C11.1498 11.7044 15.8623 7.41853 15.9531 7.02937C15.9648 6.98103 15.9748 6.8002 15.8673 6.70436C15.759 6.60853 15.6006 6.64103 15.4865 6.66686C15.3231 6.70436 12.734 8.41603 7.71815 11.8019C6.98315 12.306 6.31731 12.5519 5.72065 12.5394C5.06315 12.5252 3.79815 12.1677 2.85815 11.8619C1.70481 11.4869 0.788148 11.2885 0.868148 10.6519C0.909814 10.3202 1.36648 9.98103 2.23815 9.6352Z" fill="white"/>
</g>
<defs>
<clipPath id="clip0_119_1772">
<rect width="20" height="20" fill="white" transform="translate(0.863281)"/>
</clipPath>
</defs>
</svg>
