<svg width="21" height="20" viewBox="0 0 21 20" fill="none" xmlns="http://www.w3.org/2000/svg">
<path fill-rule="evenodd" clip-rule="evenodd" d="M2.26917 1.40589C0.863281 2.81177 0.863281 5.07452 0.863281 9.6V10.4C0.863281 14.9255 0.863281 17.1882 2.26917 18.5941C3.67506 20 5.9378 20 10.4633 20H11.2633C15.7888 20 18.0515 20 19.4574 18.5941C20.8633 17.1882 20.8633 14.9255 20.8633 10.4V9.6C20.8633 5.07452 20.8633 2.81177 19.4574 1.40589C18.0515 0 15.7888 0 11.2633 0H10.4633C5.9378 0 3.67506 0 2.26917 1.40589ZM4.23831 6.08337C4.34665 11.2834 6.94662 14.4084 11.505 14.4084H11.7633V11.4334C13.4383 11.6 14.7049 12.825 15.2132 14.4084H17.58C16.93 12.0417 15.2216 10.7334 14.1549 10.2334C15.2216 9.61669 16.7216 8.11671 17.0799 6.08337H14.9298C14.4632 7.73337 13.08 9.23336 11.7633 9.37503V6.08337H9.61327V11.85C8.27994 11.5167 6.59664 9.90004 6.52164 6.08337H4.23831Z" fill="white"/>
</svg>
